<?xml version="1.0" encoding="UTF-8"?>
<!DOCTYPE svg PUBLIC "-//W3C//DTD SVG 1.1//EN" "http://www.w3.org/Graphics/SVG/1.1/DTD/svg11.dtd">
<!-- Creator: CorelDRAW -->
<svg xmlns="http://www.w3.org/2000/svg" xml:space="preserve" width="100%" height="100%" version="1.1" style="shape-rendering:geometricPrecision; text-rendering:geometricPrecision; image-rendering:optimizeQuality; fill-rule:evenodd; clip-rule:evenodd"
viewBox="0 0 1084.76 260.96"
 xmlns:xlink="http://www.w3.org/1999/xlink"
 xmlns:xodm="http://www.corel.com/coreldraw/odm/2003">
 <defs>
  <style type="text/css">
   <![CDATA[
    .fil2 {fill:#868D7B}
    .fil4 {fill:#868D7B}
    .fil0 {fill:#868D7B;fill-rule:nonzero}
    .fil3 {fill:#9D7458;fill-rule:nonzero}
    .fil1 {fill:#9D7458;fill-rule:nonzero}
   ]]>
  </style>
 </defs>
 <g id="Layer_x0020_1">
  <metadata id="CorelCorpID_0Corel-Layer"/>
  <g id="_2174269851232">
   <g>
    <path class="fil0" d="M313.98 70.31l-18.52 0 0 1.26c8.94,0 9.7,7.3 9.7,11.46l0 62.75c0,4.16 -0.76,11.47 -9.7,11.47l0 1.26 46.87 0c16.26,-0.76 29.36,-16.38 29.36,-44.1 0,-28.1 -13.48,-43.85 -30.12,-44.1l-0.37 0 -18.78 0c-1.64,0 -2.52,0.88 -2.52,2.52l0 1.26c-0.75,-2.52 -2.9,-3.78 -5.92,-3.78zm6.3 75.47l0 -62.75c0,-4.16 0.76,-10.2 9.7,-10.2l5.17 0c17.77,0 21.42,13.73 21.42,41.58 0,27.84 -3.65,41.58 -21.42,41.58l-5.17 0c-8.94,0 -9.7,-6.05 -9.7,-10.21zm72.45 -50.4l-18.52 0 0 1.26c8.95,0 9.7,7.31 9.7,11.47l0 37.67c0,4.16 -0.75,11.47 -9.7,11.47l0 1.26 34.53 0 0 -1.26c-8.95,0 -9.71,-7.31 -9.71,-11.47l0 -18.52c0,-34.78 25.96,-30.37 25.96,-9.95l15.12 0c0,-28.61 -31.75,-31.63 -41.08,-5.8l0 -9.83c0,-4.03 -2.26,-6.3 -6.3,-6.3zm100.43 -25.07l-25.33 0 0 1.26c8.95,0 9.71,7.3 9.71,11.46l0 62.75c0,4.16 -0.76,11.47 -9.71,11.47l0 1.26 21.93 0 0 -1.26c-8.95,0 -9.7,-7.31 -9.7,-11.47l0 -67.79 37.04 80.52 26.34 0 0 -1.26c-8.95,0 -9.71,-7.31 -9.71,-11.47l0 -62.75c0,-4.16 0.76,-11.46 9.71,-11.46l0 -1.26 -7.56 0c-1.14,0 -1.89,0.75 -2.27,1.88 -0.13,-1.26 -0.76,-1.88 -2.4,-1.88l-9.7 0 0 1.26c8.95,0 9.7,7.3 9.7,11.46l0 70.06 -38.05 -82.78zm71.32 25.07l-18.52 0 0 1.26c8.94,0 9.7,7.31 9.7,11.47l0 37.67c0,4.16 -0.76,11.47 -9.7,11.47l0 1.26 34.52 0 0 -1.26c-8.94,0 -9.7,-7.31 -9.7,-11.47l0 -44.1c0,-4.03 -2.27,-6.3 -6.3,-6.3zm-2.27 -6.43c4.16,0 7.56,-3.4 7.56,-7.56 0,-4.15 -3.4,-7.56 -7.56,-7.56 -4.16,0 -7.56,3.41 -7.56,7.56 0,4.16 3.4,7.56 7.56,7.56zm47.76 69.56l47.38 0 0 -1.26c-8.95,0 -9.71,-7.31 -9.71,-11.47l0 -69.17c0,-4.04 -2.26,-6.3 -6.3,-6.3l-18.52 0 0 1.26c8.95,0 9.7,7.3 9.7,11.46l0 25.46c-3.27,-8.95 -9.83,-14.12 -21.04,-14.12 -15.25,0 -29.74,10.33 -29.74,31.63 0,18.52 13.61,31.63 28.23,32.51zm22.55 -32.51l0 19.78c0,4.16 -0.75,10.21 -9.7,10.21l-11.34 0c-10.33,0 -14.62,-14.11 -14.62,-29.99 0,-17.89 4.16,-29.23 14.37,-29.36 15.75,0.13 21.29,10.71 21.29,29.36zm45.87 -55.82l-18.52 0 0 1.26c8.94,0 9.7,7.31 9.7,11.47l0 62.87c0,4.16 -0.76,11.47 -9.7,11.47l0 1.26 34.52 0 0 -1.26c-8.94,0 -9.7,-7.31 -9.7,-11.47l0 -18.52c0,-34.78 25.96,-30.37 25.96,-9.95l0 28.47c0,4.16 -0.76,11.47 -9.71,11.47l0 1.26 34.53 0 0 -1.26c-8.95,0 -9.7,-7.31 -9.7,-11.47l0 -30.36c-1.39,-26.84 -32.01,-29.11 -41.08,-3.91l0 -35.03c0,-4.03 -2.27,-6.3 -6.3,-6.3zm78.12 25.2l-18.52 0 0 1.26c8.95,0 9.7,7.31 9.7,11.47l0 37.67c0,4.16 -0.75,11.47 -9.7,11.47l0 1.26 34.53 0 0 -1.26c-8.95,0 -9.71,-7.31 -9.71,-11.47l0 -44.1c0,-4.03 -2.26,-6.3 -6.3,-6.3zm-2.26 -6.43c4.15,0 7.56,-3.4 7.56,-7.56 0,-4.15 -3.41,-7.56 -7.56,-7.56 -4.16,0 -7.56,3.41 -7.56,7.56 0,4.16 3.4,7.56 7.56,7.56zm77.99 67.92c-14.49,0.25 -25.32,-7.43 -31.12,-23.81l-0.88 0 4.28 25.58 2.02 0 0.38 -0.38c2.26,-2.02 6.8,-3.91 10.83,-1.89 4.16,2.01 8.82,3.15 14.49,3.15 20.29,0 30.88,-12.73 30.88,-25.71 0,-30.11 -48.01,-21.17 -48.01,-47.38 0,-6.17 3.9,-14.24 17.13,-14.24 16.38,0 25.46,10.84 30.12,23.82l0.88 0 -4.28 -25.58 -2.02 0 -0.38 0.38c-2.27,2.02 -6.8,3.91 -10.83,1.89 -4.16,-2.14 -8.7,-3.28 -13.49,-3.28 -19.15,0 -29.73,12.35 -29.73,24.2 0,31.75 48,22.43 48,48.89 0,5.41 -4.53,14.24 -18.27,14.36zm52.04 -86.69l-18.52 0 0 1.26c8.95,0 9.7,7.31 9.7,11.47l0 62.87c0,4.16 -0.75,11.47 -9.7,11.47l0 1.26 34.53 0 0 -1.26c-8.95,0 -9.71,-7.31 -9.71,-11.47l0 -18.52c0,-34.78 25.96,-30.37 25.96,-9.95l0 28.47c0,4.16 -0.75,11.47 -9.7,11.47l0 1.26 34.52 0 0 -1.26c-8.94,0 -9.7,-7.31 -9.7,-11.47l0 -30.36c-1.38,-26.84 -32,-29.11 -41.08,-3.91l0 -35.03c0,-4.03 -2.26,-6.3 -6.3,-6.3zm134.96 0l-10.08 0 0 1.26c8.94,0 9.7,7.31 9.7,11.47l0 24.44c0,5.29 -3.4,12.98 -7.31,16.51l-0.63 0.5 -0.13 0.13 -6.8 5.79c-3.65,3.15 -7.06,1.39 -7.06,-3.27l0 -11.59c-0.25,-9.2 -3.02,-20.8 -20.28,-20.8 -4.92,0 -7.94,1.01 -10.97,2.9 -4.15,1.77 -8.44,-0.12 -10.71,-2.14l-2.14 0 -3.4 25.58 0.88 0c4.54,-12.85 13.11,-23.69 22.05,-23.69 4.79,0 7.19,3.4 8.32,7.81 0,31.38 -36.79,17.01 -36.79,40.7 0,16.38 26.33,17.9 36.54,8.07l56.83 -48.77c8.82,-8.31 22.68,-2.14 22.68,12.23l0 28.47c0,4.16 -0.76,11.47 -9.71,11.47l0 1.26 34.53 0 0 -1.26c-8.95,0 -9.7,-7.31 -9.7,-11.47l0 -30.36c-1.26,-24.7 -25.58,-26.97 -39.57,-12.1l-1.51 1.38 0 -28.09c0,-4.04 -2.27,-6.3 -6.3,-6.3l-8.44 0 0 -0.13zm-10.08 88.33l34.52 0 0 -1.26c-8.94,0 -9.7,-7.31 -9.7,-11.47l0 -35.03 -15.12 12.98 0 22.05c0,4.16 -0.76,11.47 -9.7,11.47l0 1.26zm-21.05 0l18.53 0 0 -1.26c-8.95,0 -9.71,-7.31 -9.71,-11.47l0 -3.4 -14.86 12.73c0.75,2.64 2.89,3.4 6.04,3.4zm-29.1 -12.73c-0.13,-20.41 17.64,-14.36 22.8,-30.36l0 1.51 0 32.38 -1.38 1.13c-6.93,6.68 -21.3,9.58 -21.42,-4.66z"/>
    <path class="fil1" d="M324.25 207.48c0,2.37 -0.81,4.35 -2.44,5.92 -1.62,1.57 -4.1,2.35 -7.43,2.35l-5.49 0 0 11.93 -3.73 0 0 -28.56 9.22 0c3.22,0 5.67,0.78 7.35,2.33 1.68,1.56 2.52,3.57 2.52,6.03zm-9.87 5.2c2.07,0 3.6,-0.45 4.59,-1.35 0.98,-0.9 1.47,-2.19 1.47,-3.85 0,-3.53 -2.02,-5.29 -6.06,-5.29l-5.49 0 0 10.49 5.49 0zm53.41 -13.56l0 28.56 -3.73 0 0 -12.95 -14.55 0 0 12.95 -3.73 0 0 -28.56 3.73 0 0 12.54 14.55 0 0 -12.54 3.73 0zm43.24 0l-9.3 17.78 0 10.78 -3.73 0 0 -10.78 -9.34 -17.78 4.14 0 7.05 14.46 7.04 -14.46 4.14 0zm29.89 28.84c-1.88,0 -3.57,-0.33 -5.06,-1 -1.49,-0.67 -2.66,-1.6 -3.5,-2.79 -0.85,-1.18 -1.29,-2.56 -1.31,-4.11l3.97 0c0.14,1.33 0.69,2.46 1.66,3.38 0.97,0.91 2.38,1.37 4.24,1.37 1.78,0 3.18,-0.45 4.2,-1.33 1.02,-0.89 1.54,-2.03 1.54,-3.42 0,-1.1 -0.3,-1.98 -0.9,-2.67 -0.61,-0.68 -1.36,-1.2 -2.26,-1.55 -0.9,-0.36 -2.12,-0.74 -3.64,-1.15 -1.89,-0.49 -3.4,-0.99 -4.53,-1.48 -1.14,-0.49 -2.11,-1.26 -2.91,-2.31 -0.81,-1.05 -1.21,-2.47 -1.21,-4.24 0,-1.56 0.4,-2.94 1.19,-4.14 0.79,-1.2 1.9,-2.13 3.34,-2.79 1.43,-0.65 3.08,-0.98 4.93,-0.98 2.68,0 4.87,0.67 6.58,2.01 1.71,1.34 2.67,3.11 2.89,5.32l-4.1 0c-0.13,-1.09 -0.71,-2.05 -1.72,-2.88 -1.01,-0.84 -2.35,-1.25 -4.01,-1.25 -1.56,0 -2.83,0.4 -3.82,1.2 -0.98,0.81 -1.47,1.94 -1.47,3.38 0,1.04 0.29,1.89 0.88,2.55 0.59,0.65 1.31,1.15 2.17,1.49 0.86,0.34 2.07,0.73 3.63,1.17 1.88,0.52 3.4,1.03 4.55,1.53 1.14,0.51 2.13,1.29 2.95,2.34 0.82,1.05 1.23,2.48 1.23,4.28 0,1.4 -0.37,2.71 -1.11,3.94 -0.74,1.22 -1.83,2.22 -3.28,2.99 -1.45,0.76 -3.15,1.14 -5.12,1.14zm35.63 -28.84l0 28.56 -3.73 0 0 -28.56 3.73 0zm36.19 28.84c-2.65,0 -5.06,-0.62 -7.25,-1.86 -2.18,-1.24 -3.91,-2.98 -5.18,-5.2 -1.27,-2.23 -1.91,-4.74 -1.91,-7.52 0,-2.79 0.64,-5.3 1.91,-7.52 1.27,-2.23 3,-3.96 5.18,-5.2 2.19,-1.25 4.6,-1.87 7.25,-1.87 2.68,0 5.11,0.62 7.3,1.87 2.18,1.24 3.9,2.97 5.16,5.18 1.26,2.21 1.88,4.72 1.88,7.54 0,2.81 -0.62,5.32 -1.88,7.54 -1.26,2.21 -2.98,3.94 -5.16,5.18 -2.19,1.24 -4.62,1.86 -7.3,1.86zm0 -3.23c2,0 3.79,-0.47 5.39,-1.4 1.6,-0.92 2.86,-2.25 3.77,-3.97 0.92,-1.72 1.37,-3.72 1.37,-5.98 0,-2.3 -0.45,-4.3 -1.37,-6.01 -0.91,-1.7 -2.16,-3.02 -3.75,-3.95 -1.58,-0.93 -3.38,-1.39 -5.41,-1.39 -2.02,0 -3.82,0.46 -5.4,1.39 -1.59,0.93 -2.84,2.25 -3.75,3.95 -0.92,1.71 -1.38,3.71 -1.38,6.01 0,2.26 0.46,4.26 1.38,5.98 0.91,1.72 2.17,3.05 3.77,3.97 1.59,0.93 3.39,1.4 5.38,1.4zm53.74 -25.61l0 3.03 -7.79 0 0 25.53 -3.72 0 0 -25.53 -7.83 0 0 -3.03 19.34 0zm43.49 0l0 28.56 -3.73 0 0 -12.95 -14.54 0 0 12.95 -3.73 0 0 -28.56 3.73 0 0 12.54 14.54 0 0 -12.54 3.73 0zm26.98 3.03l0 9.55 10.41 0 0 3.07 -10.41 0 0 9.83 11.64 0 0 3.08 -15.37 0 0 -28.6 15.37 0 0 3.07 -11.64 0zm49.23 25.53l-6.8 -11.68 -4.51 0 0 11.68 -3.73 0 0 -28.56 9.22 0c2.16,0 3.98,0.37 5.47,1.1 1.49,0.74 2.6,1.74 3.34,3 0.74,1.25 1.11,2.69 1.11,4.3 0,1.96 -0.57,3.7 -1.7,5.2 -1.14,1.5 -2.84,2.5 -5.11,2.99l7.17 11.97 -4.46 0zm-11.31 -14.67l5.49 0c2.02,0 3.54,-0.5 4.55,-1.5 1.01,-0.99 1.51,-2.33 1.51,-3.99 0,-1.7 -0.49,-3.01 -1.49,-3.94 -1,-0.92 -2.52,-1.39 -4.57,-1.39l-5.49 0 0 10.82zm54.96 8.32l-12.45 0 -2.3 6.35 -3.93 0 10.33 -28.4 4.3 0 10.28 28.4 -3.93 0 -2.3 -6.35zm-1.06 -3.04l-5.16 -14.42 -5.17 14.42 10.33 0zm47.79 -10.81c0,2.37 -0.81,4.35 -2.43,5.92 -1.63,1.57 -4.11,2.35 -7.44,2.35l-5.49 0 0 11.93 -3.73 0 0 -28.56 9.22 0c3.22,0 5.67,0.78 7.35,2.33 1.68,1.56 2.52,3.57 2.52,6.03zm-9.87 5.2c2.07,0 3.6,-0.45 4.59,-1.35 0.98,-0.9 1.47,-2.19 1.47,-3.85 0,-3.53 -2.02,-5.29 -6.06,-5.29l-5.49 0 0 10.49 5.49 0zm51.4 -13.56l-9.3 17.78 0 10.78 -3.73 0 0 -10.78 -9.34 -17.78 4.14 0 7.04 14.46 7.05 -14.46 4.14 0z"/>
   </g>
   <g>
    <path class="fil2" d="M74.13 9c0,0 -10.87,34.63 44.05,67.73 54.91,33.1 47.1,95.41 47.1,95.41 0,0 -5.41,83.87 -96.72,88.81 0,0 71.94,-10.33 79.86,-89.49 7.92,-79.17 -107.03,-97.99 -74.29,-162.46z"/>
    <circle class="fil2" cx="164.84" cy="73.58" r="17.88"/>
    <path class="fil3" d="M25.7 88.17c-2.92,0.46 -5.58,2.85 -6.13,5.83 -7.91,39.32 -19.3,112.14 -19.52,112.64 -0.04,0.73 -0.1,1.36 0.03,2.11 0.49,3.07 3.05,5.85 6.3,6.21 0.81,0.18 1.66,0.04 2.41,-0.08 2.67,-0.43 4.94,-1.98 5.95,-4.41 0.46,-1.62 1.7,-5.43 3.48,-10.1 9.82,-27.41 34.87,-98.93 57.99,-102.64 1.61,-0.26 3.11,-0.24 4.56,0.14 2.64,0.66 4.16,5.36 5.23,12 1.14,7.08 1.7,16.33 2.32,25.61 0.62,8.67 1.29,17.32 2.56,25.26 1.89,11.76 5.14,21.71 11.59,27.17 4.03,3.27 8.88,4.6 15.07,3.61 64.88,-10.43 141.43,-121.69 64.1,-191.51 71.27,100.1 -57.98,183.63 -68.89,174.37 -3.14,-2.66 -5.67,-6.86 -6.91,-14.55 -1.2,-7.48 -1.9,-16.29 -2.56,-25.26 -0.52,-8.68 -0.99,-17.32 -2.22,-25.01 -2.18,-13.52 -6.59,-24 -16.91,-26.26 -3.16,-0.73 -6.16,-0.81 -9.12,-0.33 -18.85,3.03 -35.61,28.36 -48.32,55.45 2.56,-14.89 5.24,-29.35 7.38,-41.34 0.16,-0.96 0.17,-1.84 0.02,-2.74 -0.47,-2.91 -2.68,-5.45 -5.83,-6.13 -0.75,-0.18 -1.68,-0.19 -2.58,-0.04z"/>
    <path class="fil2" d="M170.72 197.44c0,0 -10.55,41.79 -54.55,60.88 0,0 60.21,-4.33 54.55,-60.88z"/>
    <circle class="fil4" cx="228.48" cy="32.5" r="10.1"/>
    <circle class="fil4" cx="232.69" cy="60.41" r="7.67"/>
    <circle class="fil4" cx="230.13" cy="84.14" r="5.92"/>
    <circle class="fil4" cx="223.66" cy="104.56" r="4.35"/>
    <circle class="fil4" cx="215.03" cy="122.17" r="3.11"/>
   </g>
  </g>
 </g>
</svg>
