<?xml version="1.0" encoding="UTF-8"?>
<!DOCTYPE svg PUBLIC "-//W3C//DTD SVG 1.1//EN" "http://www.w3.org/Graphics/SVG/1.1/DTD/svg11.dtd">
<!-- Creator: CorelDRAW -->
<svg xmlns="http://www.w3.org/2000/svg" xml:space="preserve" width="3.1721mm" height="3.3867mm" version="1.1" style="shape-rendering:geometricPrecision; text-rendering:geometricPrecision; image-rendering:optimizeQuality; fill-rule:evenodd; clip-rule:evenodd"
viewBox="0 0 1.67 1.79"
 xmlns:xlink="http://www.w3.org/1999/xlink"
 xmlns:xodm="http://www.corel.com/coreldraw/odm/2003">
 <defs>
  <style type="text/css">
   <![CDATA[
    .fil0 {fill:white}
   ]]>
  </style>
 </defs>
 <g id="Layer_x0020_1">
  <metadata id="CorelCorpID_0Corel-Layer"/>
  <path class="fil0" d="M1.12 0.72c-0,0.01 -0.01,0.02 -0.01,0.04 -0,0.01 -0.01,0.03 -0.01,0.04 -0.01,0.03 -0.01,0.05 -0.02,0.08 -0.01,0.03 -0.04,0.14 -0.04,0.16 0.01,-0.01 0.03,-0.02 0.04,-0.03 0.08,-0.07 0.19,-0.16 0.28,-0.23 0.01,-0.01 0.03,-0.02 0.04,-0.03 0.05,-0.04 0.26,-0.21 0.28,-0.23l-0.28 -0.22c-0.01,-0.01 -0.03,-0.02 -0.04,-0.03l-0.16 -0.13c-0.03,-0.02 -0.05,-0.04 -0.08,-0.06 -0.03,-0.02 -0.05,-0.04 -0.08,-0.06 0,0.02 0.01,0.06 0.02,0.08l0.05 0.2c0,0.02 0.01,0.03 0.01,0.04 -0.02,0 -0.04,0.01 -0.06,0.01 -0.25,0.04 -0.46,0.1 -0.66,0.25 -0.01,0.01 -0.03,0.02 -0.04,0.03 -0.01,0.01 -0.01,0.01 -0.02,0.02 -0.01,0.01 -0.01,0.01 -0.02,0.02 -0.03,0.03 -0.06,0.06 -0.08,0.09 -0.16,0.18 -0.23,0.47 -0.23,0.72 0,0.05 -0,0.16 0.01,0.2l0.02 0.12 0.01 -0.04c0.04,-0.23 0.12,-0.45 0.26,-0.63 0.02,-0.03 0.04,-0.05 0.06,-0.07 0.03,-0.03 0.05,-0.06 0.09,-0.08l0.06 -0.05c0.16,-0.12 0.39,-0.2 0.62,-0.2z"/>
 </g>
</svg>
