<svg xmlns="http://www.w3.org/2000/svg" viewBox="0 0 30 30"> <path d="M3.9,23.6c-1.9,0-3.4-1.6-3.4-3.6V4.1c0-2,1.5-3.6,3.4-3.6c1.9,0,3.4,1.6,3.4,3.6v15.9C7.4,21.9,5.8,23.5,3.9,23.6L3.9,23.6 z M3.9,1.5c-1.4,0-2.5,1.2-2.5,2.6v15.9c0,1.4,1.1,2.7,2.5,2.7c1.4,0,2.5-1.2,2.5-2.7V4.1C6.5,2.6,5.4,1.4,3.9,1.5L3.9,1.5z  M29.1,12.5h-5.7c0,0-0.4-0.2-0.4-0.5c0-0.2,0.2-0.5,0.4-0.5h5.7c0,0,0.4,0.2,0.4,0.5C29.5,12.3,29.3,12.5,29.1,12.5z M20,12.5h-4.4 c0,0-0.4-0.2-0.4-0.5c0-0.2,0.2-0.5,0.4-0.5H20c0,0,0.4,0.2,0.4,0.5C20.5,12.3,20.3,12.5,20,12.5z M14.2,6.6c0,0-0.4-0.1-0.4-0.3 c-0.1-0.2,0.1-0.5,0.3-0.6l10.5-2.8c0,0,0.5,0.1,0.6,0.3c0.1,0.2-0.1,0.5-0.3,0.6L14.3,6.6C14.3,6.6,14.3,6.6,14.2,6.6z M24.7,21.2 c0,0-0.1,0-0.1,0l-10.5-2.8c0,0-0.4-0.3-0.3-0.6c0.1-0.2,0.3-0.4,0.6-0.3l10.5,2.8c0,0,0.4,0.3,0.3,0.6 C25.1,21.1,24.9,21.2,24.7,21.2z M3.9,29.5c0,0-0.4-0.2-0.4-0.5v-5.9c0,0,0.2-0.5,0.4-0.5c0.2,0,0.4,0.2,0.4,0.5V29 C4.4,29,4.2,29.5,3.9,29.5z M6.9,19.9c0,0-0.4-0.2-0.4-0.3c0-0.2,0.1-0.5,0.3-0.6c3.1-0.7,5.3-3.6,5.3-6.9S9.9,5.8,6.8,5.1 c-0.2,0-0.4-0.3-0.3-0.6c0-0.2,0.3-0.4,0.6-0.3c3.5,0.8,6,4.1,6,7.8s-2.5,7-6,7.8C7,19.9,7,19.9,6.9,19.9z" fill="#9d7458"/></svg>