<svg xmlns="http://www.w3.org/2000/svg" viewBox="0 0 40 40"> <path d="M27,24.4c-1.4,0-2.6-1.3-2.6-2.8s1.2-2.8,2.6-2.8c1.4,0,2.6,1.3,2.6,2.8S28.4,24.4,27,24.4z M27,20c-0.8,0-1.4,0.7-1.4,1.5 S26.2,23,27,23c0.8,0,1.4-0.7,1.4-1.5S27.8,20,27,20z M27,27c-0.5,0-1-0.2-1.4-0.5c-0.3-0.2-0.6-0.4-0.8-0.4c-0.6,0-1.1-0.3-1.4-0.7 c-0.4-0.4-0.6-0.9-0.6-1.5c0-0.2-0.1-0.5-0.4-0.8c-0.3-0.5-0.5-0.9-0.5-1.4c0-0.5,0.1-1.1,0.5-1.4c0.2-0.3,0.4-0.6,0.4-0.8 c0-0.6,0.3-1.1,0.6-1.5c0.4-0.4,0.9-0.7,1.4-0.7c0.2,0,0.5-0.2,0.8-0.4c0.8-0.7,2-0.7,2.8,0c0.3,0.2,0.6,0.4,0.8,0.4 c0.5,0,1.1,0.3,1.4,0.7c0.4,0.4,0.6,0.9,0.6,1.5c0,0.2,0.1,0.5,0.4,0.8c0.3,0.5,0.4,0.9,0.4,1.4c0,0.5-0.1,1.1-0.4,1.4 c-0.2,0.3-0.4,0.6-0.4,0.8c0,0.6-0.3,1.1-0.6,1.5c-0.4,0.4-0.9,0.7-1.4,0.7c-0.2,0-0.5,0.2-0.8,0.4C28,26.8,27.5,27,27,27L27,27z  M27,17.4c0,0-0.5,0.1-0.7,0.2c-0.5,0.4-0.9,0.6-1.4,0.6c-0.3,0-0.5,0.2-0.7,0.4c-0.2,0.2-0.3,0.5-0.4,0.8c0,0.5-0.2,1-0.6,1.5 C23,21.1,23,21.3,23,21.6c0,0.3,0.1,0.5,0.2,0.8c0.4,0.5,0.6,1,0.6,1.5c0,0.3,0.1,0.5,0.4,0.8c0.2,0.2,0.4,0.3,0.7,0.4 c0.5,0,0.9,0.2,1.4,0.6c0.4,0.3,0.9,0.3,1.4,0c0.5-0.4,0.9-0.6,1.4-0.6c0.3,0,0.5-0.2,0.7-0.4c0.2-0.2,0.3-0.5,0.4-0.8 c0-0.5,0.2-1,0.6-1.5c0.1-0.2,0.2-0.5,0.2-0.8c0-0.3-0.1-0.5-0.2-0.7c-0.4-0.5-0.6-1-0.6-1.5c0-0.3-0.1-0.5-0.4-0.8 c-0.2-0.2-0.4-0.3-0.7-0.4c-0.5,0-0.9-0.2-1.4-0.6C27.4,17.5,27.2,17.4,27,17.4L27,17.4z M14.7,11.9c-1.1,0-2.1-0.3-3.1-1 c-1.1-0.8-1.8-1.8-2-3c-0.4-2.4,1.2-4.6,1.3-4.7c0.2-0.3,0.6-0.3,0.9-0.2C12,3.2,12,3.6,11.9,3.9c0,0-1.3,1.9-1,3.7 c0.1,0.8,0.6,1.6,1.4,2.2c1.7,1.2,3.5,0.8,4.7,0.2c0.9-0.5,2-0.5,2.9,0c1.2,0.6,3,1.1,4.7-0.2c0.9-0.6,1.4-1.4,1.4-2.2 c0.3-1.8-1-3.7-1-3.7C24.9,3.6,25,3.3,25.3,3c0.3-0.2,0.6-0.2,0.9,0.2c0,0.1,1.6,2.4,1.3,4.7c-0.2,1.2-0.9,2.3-2,3 c-1.7,1.2-3.8,1.3-5.9,0.3c-0.6-0.3-1.4-0.3-1.9,0c-0.9,0.5-1.9,0.7-2.8,0.7H14.7z M11.2,37c0,0-0.4-0.1-0.5-0.3 c-2.1-3.5-1.9-9.2,0.6-14.6c2.4-5.1-0.6-12.1-0.6-12.1c-0.1-0.3,0-0.7,0.3-0.8c0.3-0.2,0.6,0,0.8,0.3c0.1,0.3,3.2,7.6,0.6,13.2 c-2.4,5-2.6,10.2-0.6,13.4c0.2,0.3,0.1,0.7-0.1,0.8C11.4,36.9,11.3,36.9,11.2,37L11.2,37z M25.7,37c0,0-0.2,0-0.4-0.1 c-0.3-0.2-0.4-0.6-0.1-0.8c1.4-2.3,1.7-5.8,0.7-9.6c-0.1-0.3,0.1-0.7,0.4-0.8c0.3-0.1,0.6,0.1,0.7,0.5c1.1,4.2,0.8,8-0.9,10.6 C26,36.9,25.9,37.1,25.7,37L25.7,37z M24.1,18.5c0,0-0.6-0.3-0.6-0.6c-0.1-4.3,1.6-8.2,1.6-8.4C25.3,9.2,25.7,9,26,9.2 c0.3,0.2,0.4,0.5,0.3,0.8c0,0-1.6,3.9-1.5,7.8C24.8,18.2,24.5,18.4,24.1,18.5L24.1,18.5z M20,37c0,0-0.6-0.3-0.6-0.6v-3.9 c0-0.6-0.5-1.1-1.1-1.1c-0.6,0-1.1,0.5-1.1,1.1v3.9c0,0-0.3,0.6-0.6,0.6s-0.6-0.3-0.6-0.6v-3.9c0-1.3,1-2.4,2.2-2.4 c1.2,0,2.2,1.1,2.2,2.4v3.9C20.6,36.4,20.3,37,20,37z M16.8,33.2c0,0-0.3,0-0.4-0.2c0,0-3-2.4-6.7-2.4c-0.4,0-0.6-0.3-0.6-0.6 c0-0.4,0.3-0.6,0.6-0.6c4.1,0,7.2,2.6,7.4,2.7c0.3,0.2,0.3,0.6,0.1,0.9C17.1,33.1,17,33.2,16.8,33.2L16.8,33.2z M20,33.2 c0,0-0.4-0.1-0.5-0.2c-0.2-0.3-0.1-0.7,0.1-0.9c0.1-0.1,3.3-2.7,7.4-2.7c0.4,0,0.6,0.3,0.6,0.6c0,0.4-0.3,0.6-0.6,0.6 c-3.6,0-6.6,2.4-6.7,2.4C20.2,33.1,20.1,33.2,20,33.2L20,33.2z M20.6,24.8H11c0,0-0.6-0.3-0.6-0.6c0-0.3,0.3-0.6,0.6-0.6h9.6 c0,0,0.6,0.3,0.6,0.6C21.2,24.5,20.9,24.8,20.6,24.8z M18.4,19.9c0,0-0.6-0.3-0.6-0.6v-1.1c0,0,0.3-0.6,0.6-0.6S19,18,19,18.3v1.1 C19,19.3,18.7,19.9,18.4,19.9z M32.1,9.2c0,0-0.6-0.3-0.6-0.6V7.5c0,0,0.3-0.6,0.6-0.6c0.3,0,0.6,0.3,0.6,0.6v1.1 C32.7,8.6,32.4,9.2,32.1,9.2z M34.8,10.8h-1c0,0-0.6-0.3-0.6-0.6c0-0.3,0.3-0.6,0.6-0.6h1c0,0,0.6,0.3,0.6,0.6 C35.4,10.5,35.1,10.8,34.8,10.8z M30.5,10.8h-1c0,0-0.6-0.3-0.6-0.6c0-0.3,0.3-0.6,0.6-0.6h1c0,0,0.6,0.3,0.6,0.6 C31.1,10.5,30.8,10.8,30.5,10.8z M32.1,13.6c0,0-0.6-0.3-0.6-0.6v-1.1c0,0,0.3-0.6,0.6-0.6c0.3,0,0.6,0.3,0.6,0.6V13 C32.7,13,32.4,13.6,32.1,13.6z M36.1,17.1c0,0-0.6-0.3-0.6-0.6v-1c0,0,0.3-0.6,0.6-0.6c0.3,0,0.6,0.3,0.6,0.6v1 C36.7,16.5,36.4,17.1,36.1,17.1z M38.4,18.5h-0.9c0,0-0.6-0.3-0.6-0.6c0-0.3,0.3-0.6,0.6-0.6h0.9c0,0,0.6,0.3,0.6,0.6 C39,18.2,38.7,18.5,38.4,18.5z M34.6,18.5h-0.9c0,0-0.6-0.3-0.6-0.6c0-0.3,0.3-0.6,0.6-0.6h0.9c0,0,0.6,0.3,0.6,0.6 C35.2,18.2,34.9,18.5,34.6,18.5z M36.1,20.9c0,0-0.6-0.3-0.6-0.6v-1c0,0,0.3-0.6,0.6-0.6c0.3,0,0.6,0.3,0.6,0.6v1 C36.7,20.3,36.4,20.9,36.1,20.9z M4.2,27.3c0,0-0.6-0.3-0.6-0.6v-1.1c0,0,0.3-0.6,0.6-0.6c0.3,0,0.6,0.3,0.6,0.6v1.1 C4.8,26.7,4.5,27.3,4.2,27.3z M6.9,28.9h-1c0,0-0.6-0.3-0.6-0.6c0-0.3,0.3-0.6,0.6-0.6h1c0,0,0.6,0.3,0.6,0.6 C7.4,28.6,7.2,28.9,6.9,28.9z M2.6,28.9h-1c0,0-0.6-0.3-0.6-0.6c0-0.3,0.3-0.6,0.6-0.6h1c0,0,0.6,0.3,0.6,0.6 C3.1,28.6,2.9,28.9,2.6,28.9z M4.2,31.6c0,0-0.6-0.3-0.6-0.6V30c0,0,0.3-0.6,0.6-0.6c0.3,0,0.6,0.3,0.6,0.6V31 C4.8,31,4.5,31.6,4.2,31.6z M7,14.6c0,0-0.6-0.3-0.6-0.6v-1c0,0,0.3-0.6,0.6-0.6c0.3,0,0.6,0.3,0.6,0.6v1C7.6,14,7.3,14.6,7,14.6z  M9.5,16.1H8.6c0,0-0.6-0.3-0.6-0.6c0-0.3,0.3-0.6,0.6-0.6h0.9c0,0,0.6,0.3,0.6,0.6C10.1,15.8,9.8,16.1,9.5,16.1z M5.4,16.1H4.5 c0,0-0.6-0.3-0.6-0.6c0-0.3,0.3-0.6,0.6-0.6h0.9c0,0,0.6,0.3,0.6,0.6C6,15.8,5.7,16.1,5.4,16.1z M7,18.7c0,0-0.6-0.3-0.6-0.6v-1 c0,0,0.3-0.6,0.6-0.6c0.3,0,0.6,0.3,0.6,0.6v1C7.6,18.1,7.3,18.7,7,18.7z M33.8,28.9c0,0-0.6-0.3-0.6-0.6v-1.1c0,0,0.3-0.6,0.6-0.6 c0.3,0,0.6,0.3,0.6,0.6v1.1C34.3,28.3,34.1,28.9,33.8,28.9z M36.4,30.6h-1c0,0-0.6-0.3-0.6-0.6s0.3-0.6,0.6-0.6h1 c0,0,0.6,0.3,0.6,0.6S36.7,30.6,36.4,30.6z M32.1,30.6h-1c0,0-0.6-0.3-0.6-0.6s0.3-0.6,0.6-0.6h1c0,0,0.6,0.3,0.6,0.6 S32.3,30.6,32.1,30.6z M33.8,33.3c0,0-0.6-0.3-0.6-0.6v-1.1c0,0,0.3-0.6,0.6-0.6c0.3,0,0.6,0.3,0.6,0.6v1.1 C34.3,32.7,34.1,33.3,33.8,33.3z" fill="#9d7458"/></svg>