<svg xmlns="http://www.w3.org/2000/svg" viewBox="0 0 30 30"> <path d="M24.8,26.9c-1.2,0-2.2-1.1-2.2-2.3c0-1.3,1-2.3,2.2-2.3c1.2,0,2.2,1.1,2.2,2.3C27,25.8,26,26.9,24.8,26.9z M24.8,23.2 c-0.7,0-1.3,0.6-1.3,1.4s0.6,1.4,1.3,1.4c0.7,0,1.3-0.6,1.3-1.4S25.5,23.2,24.8,23.2z M24.8,29.5c-0.6,0-1.2-0.3-1.6-0.8 c-0.6,0.1-1.3-0.2-1.7-0.6c-0.4-0.4-0.6-1.1-0.6-1.8c-0.5-0.4-0.8-1.1-0.8-1.7c0-0.7,0.3-1.3,0.8-1.7c-0.1-0.7,0.2-1.3,0.6-1.8 c0.4-0.4,1.1-0.7,1.7-0.6c0.4-0.5,1-0.8,1.6-0.8s1.2,0.3,1.6,0.8c0.6-0.1,1.3,0.2,1.7,0.6c0.4,0.4,0.6,1.1,0.6,1.8 c0.5,0.4,0.8,1.1,0.8,1.7c0,0.7-0.3,1.3-0.8,1.7c0.1,0.7-0.2,1.3-0.6,1.8c-0.4,0.4-1.1,0.7-1.7,0.6C26.1,29.2,25.4,29.5,24.8,29.5z  M23.4,27.7c0,0,0.3,0.1,0.4,0.2c0.2,0.4,0.6,0.7,1.1,0.7c0.5,0,0.8-0.2,1.1-0.7c0.1-0.2,0.3-0.3,0.5-0.2c0.4,0.1,0.8,0,1.2-0.3 c0.3-0.3,0.4-0.8,0.3-1.2c0-0.2,0-0.4,0.2-0.5c0.4-0.2,0.6-0.6,0.6-1.1c0-0.5-0.2-0.8-0.6-1.1c-0.2-0.1-0.3-0.3-0.2-0.5 c0.1-0.4,0-0.9-0.3-1.2c-0.3-0.3-0.7-0.4-1.2-0.3c-0.2,0.1-0.4,0-0.5-0.2c-0.2-0.4-0.6-0.7-1.1-0.7c-0.5,0-0.8,0.2-1.1,0.7 c-0.1,0.2-0.3,0.3-0.5,0.2c-0.4-0.1-0.8,0-1.2,0.3c-0.3,0.3-0.4,0.8-0.3,1.2c0,0.2,0,0.4-0.2,0.5c-0.4,0.2-0.6,0.6-0.6,1.1 c0,0.5,0.2,0.8,0.6,1.1c0.2,0.1,0.3,0.3,0.2,0.5c-0.1,0.4,0,0.9,0.3,1.2c0.3,0.3,0.7,0.4,1.2,0.3C23.2,27.7,23.3,27.7,23.4,27.7z  M23.2,9.1H3.4c0,0-0.4-0.2-0.4-0.4s0.2-0.4,0.4-0.4h19.8c0,0,0.4,0.2,0.4,0.4S23.4,9.1,23.2,9.1z M23.2,13.4H3.4 c0,0-0.4-0.2-0.4-0.4c0-0.2,0.2-0.4,0.4-0.4h19.8c0,0,0.4,0.2,0.4,0.4C23.6,13.2,23.4,13.4,23.2,13.4z M23.2,17.6H3.4 c0,0-0.4-0.2-0.4-0.4c0-0.2,0.2-0.4,0.4-0.4h19.8c0,0,0.4,0.2,0.4,0.4C23.6,17.4,23.4,17.6,23.2,17.6z M21.8,21.9H3.4 c0,0-0.4-0.2-0.4-0.4C3,21.2,3.2,21,3.4,21h18.3c0,0,0.4,0.2,0.4,0.4C22.1,21.7,21.9,21.9,21.8,21.9L21.8,21.9z M19.1,26.2H3.4 c0,0-0.4-0.2-0.4-0.4c0-0.2,0.2-0.4,0.4-0.4H19c0,0,0.4,0.2,0.4,0.4C19.4,25.9,19.2,26.2,19.1,26.2L19.1,26.2z M3.4,26.2 c0,0-0.4-0.2-0.4-0.4V8.7c0,0,0.2-0.4,0.4-0.4c0.2,0,0.4,0.2,0.4,0.4v17.1C3.8,25.7,3.6,26.2,3.4,26.2z M8.4,26.2 c0,0-0.4-0.2-0.4-0.4V8.7c0,0,0.2-0.4,0.4-0.4s0.4,0.2,0.4,0.4v17.1C8.8,25.7,8.6,26.2,8.4,26.2z M13.3,26.2c0,0-0.4-0.2-0.4-0.4 V8.7c0,0,0.2-0.4,0.4-0.4c0.2,0,0.4,0.2,0.4,0.4v17.1C13.8,25.7,13.5,26.2,13.3,26.2z M18.3,26.2c0,0-0.4-0.2-0.4-0.4V8.7 c0,0,0.2-0.4,0.4-0.4c0.2,0,0.4,0.2,0.4,0.4v17.1C18.7,25.7,18.5,26.2,18.3,26.2z M23.2,18.9c0,0-0.4-0.2-0.4-0.4V8.7 c0,0,0.2-0.4,0.4-0.4c0.2,0,0.4,0.2,0.4,0.4v9.8C23.6,18.5,23.4,18.9,23.2,18.9z M16.9,3.2H9.7c0,0-0.4-0.2-0.4-0.4 c0-0.2,0.2-0.4,0.4-0.4h7.2c0,0,0.4,0.2,0.4,0.4C17.3,2.9,17.1,3.2,16.9,3.2z M22.6,6.5H4c0,0-0.4-0.2-0.4-0.4 c0-2.1,1.6-3.8,3.6-3.8h0.4c0,0,0.4,0.2,0.4,0.4c0,0.2-0.2,0.4-0.4,0.4H7.2c-1.4,0-2.5,1.1-2.7,2.4h17.7c-0.2-1.4-1.3-2.4-2.7-2.4 h-0.4c0,0-0.4-0.2-0.4-0.4c0-0.2,0.2-0.4,0.4-0.4h0.4c2,0,3.6,1.7,3.6,3.8C23,6.3,22.8,6.5,22.6,6.5z M7.6,3.9c0,0-0.4-0.2-0.4-0.4 V2.1c0-0.9,0.7-1.6,1.5-1.6h0.8c0,0,0.4,0.2,0.4,0.4S9.7,1.4,9.5,1.4H8.6C8.3,1.4,8,1.7,8,2.1v1.4C8,3.4,7.8,3.9,7.6,3.9z M19.1,3.9 c0,0-0.4-0.2-0.4-0.4V2.1c0-0.3-0.3-0.7-0.6-0.7h-0.8c0,0-0.4-0.2-0.4-0.4s0.2-0.4,0.4-0.4H18c0.8,0,1.5,0.7,1.5,1.6v1.4 C19.5,3.4,19.3,3.9,19.1,3.9z M19.7,28.7H3.4c-1.6,0-2.9-1.3-2.9-3V8.6c0-1.7,1.3-3,2.9-3h19.9c1.6,0,2.9,1.3,2.9,3v11.8 c0,0-0.2,0.4-0.4,0.4c-0.2,0-0.4-0.2-0.4-0.4V8.6c0-1.2-0.9-2.1-2-2.1H3.4c-1.1,0-2,0.9-2,2.1v17.1c0,1.2,0.9,2.1,2,2.1h16.3 c0,0,0.4,0.2,0.4,0.4C20.1,28.5,19.9,28.7,19.7,28.7z" fill="#9d7458"/></svg>