<svg xmlns="http://www.w3.org/2000/svg" viewBox="0 0 30 30">
  <path d="M15.5,7.5H7.9c-0.7,0-1.3-0.6-1.3-1.3v-3c0-1.4,1.2-2.6,2.6-2.6h5.1c1.4,0,2.6,1.2,2.6,2.6v3C16.8,6.9,16.2,7.5,15.5,7.5 L15.5,7.5z M9.1,1.4c-0.9,0-1.7,0.8-1.7,1.7v3c0,0,0.2,0.4,0.4,0.4h7.5c0,0,0.4-0.2,0.4-0.4v-3c0-0.9-0.8-1.7-1.7-1.7H9.1L9.1,1.4z  M20.4,29.5H2.9c-1.3,0-2.4-1.1-2.4-2.4V6c0-1.3,1.1-2.4,2.4-2.4H7c0,0,0.4,0.2,0.4,0.4v2.1c0,0,0.2,0.4,0.4,0.4h7.5 c0,0,0.4-0.2,0.4-0.4V4c0,0,0.2-0.4,0.4-0.4h4.1c1.3,0,2.4,1.1,2.4,2.4v21.1C22.8,28.4,21.7,29.5,20.4,29.5z M2.9,4.5 C2.1,4.5,1.4,5.1,1.4,6v21.1c0,0.8,0.7,1.5,1.5,1.5h17.4c0.8,0,1.5-0.7,1.5-1.5V6c0-0.8-0.7-1.5-1.5-1.5h-3.6v1.7 c0,0.7-0.6,1.3-1.3,1.3H7.9c-0.7,0-1.3-0.6-1.3-1.3V4.4L2.9,4.5L2.9,4.5z M7.8,26.5c0,0-0.2,0-0.3-0.1l-3.7-3.8c0,0-0.2-0.3-0.1-0.5 c0.1-0.2,0.2-0.3,0.4-0.3h3c0.7,0,1.2,0.6,1.2,1.2v3c0,0-0.1,0.3-0.3,0.4C7.9,26.5,7.9,26.5,7.8,26.5z M5.2,22.7l2.2,2.2V23 c0,0-0.1-0.3-0.3-0.3H5.2z M26.6,27.8c0,0-0.3-0.1-0.4-0.2l-1.6-2.7c0,0-0.1-0.3,0-0.4c0.1-0.2,0.2-0.2,0.4-0.2h3.2 c0,0,0.3,0.1,0.4,0.2c0.1,0.2,0.1,0.3,0,0.4L27,27.6C27,27.6,26.7,27.8,26.6,27.8z M25.8,25.2l0.8,1.3l0.8-1.3H25.8L25.8,25.2z  M18.5,26.5H7.8c0,0-0.2,0-0.3-0.1l-3.7-3.8c0,0-0.1-0.2-0.1-0.3V7.5c0-0.7,0.6-1.2,1.2-1.2h2.5c0,0,0.4,0.2,0.4,0.4 c0,0.2-0.2,0.4-0.4,0.4H4.8c0,0-0.3,0.1-0.3,0.3v14.6L8,25.6h10.5c0,0,0.3-0.1,0.3-0.3V7.5c0,0-0.1-0.3-0.3-0.3H16 c0,0-0.4-0.2-0.4-0.4c0-0.2,0.2-0.4,0.4-0.4h2.5c0.7,0,1.2,0.6,1.2,1.2v17.8C19.7,26,19.1,26.5,18.5,26.5z M8.3,10.2H6.8 c0,0-0.4-0.2-0.4-0.4s0.2-0.4,0.4-0.4h1.5c0,0,0.4,0.2,0.4,0.4S8.5,10.2,8.3,10.2z M16.5,10.2H11c0,0-0.4-0.2-0.4-0.4 s0.2-0.4,0.4-0.4h5.6c0,0,0.4,0.2,0.4,0.4S16.7,10.2,16.5,10.2z M8.3,12.6H6.8c0,0-0.4-0.2-0.4-0.4c0-0.2,0.2-0.4,0.4-0.4h1.5 c0,0,0.4,0.2,0.4,0.4C8.8,12.4,8.5,12.6,8.3,12.6z M16.5,12.6H11c0,0-0.4-0.2-0.4-0.4c0-0.2,0.2-0.4,0.4-0.4h5.6 c0,0,0.4,0.2,0.4,0.4C17,12.4,16.7,12.6,16.5,12.6z M8.3,15.1H6.8c0,0-0.4-0.2-0.4-0.4c0-0.2,0.2-0.4,0.4-0.4h1.5 c0,0,0.4,0.2,0.4,0.4C8.8,14.8,8.5,15.1,8.3,15.1z M16.5,15.1H11c0,0-0.4-0.2-0.4-0.4c0-0.2,0.2-0.4,0.4-0.4h5.6 c0,0,0.4,0.2,0.4,0.4C17,14.8,16.7,15.1,16.5,15.1z M8.3,17.5H6.8c0,0-0.4-0.2-0.4-0.4s0.2-0.4,0.4-0.4h1.5c0,0,0.4,0.2,0.4,0.4 S8.5,17.5,8.3,17.5z M16.5,17.5H11c0,0-0.4-0.2-0.4-0.4s0.2-0.4,0.4-0.4h5.6c0,0,0.4,0.2,0.4,0.4S16.7,17.5,16.5,17.5z M8.3,19.9 H6.8c0,0-0.4-0.2-0.4-0.4c0-0.2,0.2-0.4,0.4-0.4h1.5c0,0,0.4,0.2,0.4,0.4C8.8,19.7,8.5,19.9,8.3,19.9z M16.5,19.9H11 c0,0-0.4-0.2-0.4-0.4c0-0.2,0.2-0.4,0.4-0.4h5.6c0,0,0.4,0.2,0.4,0.4C17,19.7,16.7,19.9,16.5,19.9z M28.2,25.2H25 c0,0-0.4-0.2-0.4-0.4V5.6c0-1.2,0.9-2,2-2c1.1,0,2,0.9,2,2v2.2c0,0-0.2,0.4-0.4,0.4c-0.2,0-0.4-0.2-0.4-0.4V5.6 c0-0.6-0.5-1.2-1.2-1.2c-0.7,0-1.2,0.5-1.2,1.2v18.7h2.3V9.7c0,0,0.2-0.4,0.4-0.4c0.2,0,0.4,0.2,0.4,0.4v15 C28.6,24.7,28.4,25.2,28.2,25.2z M26.6,28.7c0,0-0.4-0.2-0.4-0.4v-0.8c0,0,0.2-0.4,0.4-0.4c0.2,0,0.4,0.2,0.4,0.4v0.8 C27,28.2,26.8,28.7,26.6,28.7z M29.1,8.2h-2.1c0,0-0.4-0.2-0.4-0.4s0.2-0.4,0.4-0.4h2.1c0,0,0.4,0.2,0.4,0.4S29.3,8.2,29.1,8.2z  M29.1,10.2h-2.1c0,0-0.4-0.2-0.4-0.4s0.2-0.4,0.4-0.4h2.1c0,0,0.4,0.2,0.4,0.4S29.3,10.2,29.1,10.2z" fill="#9d7458"/>
</svg>